<svg width="737" height="200" viewBox="0 0 737 200" fill="none" xmlns="http://www.w3.org/2000/svg">
<path d="M0 40C0 17.9086 17.9086 0 40 0H160C182.091 0 200 17.9086 200 40V160C200 182.091 182.091 200 160 200H40C17.9086 200 0 182.091 0 160V40Z" fill="#101C7B"/>
<path d="M138 113.68C174 77.6797 200 91.6797 200 91.6797V125.68C187.949 144.333 151 166.68 138 159.68C125 152.68 96.9467 172.36 67 180.68L25 152.68C73.3764 155.065 102 149.68 138 113.68Z" fill="#2C89F3"/>
<path d="M200 160C200 182.091 182.091 200 160 200H40C17.9086 200 3.22172e-07 182.091 0 160V136.115C8.47812e-05 115.886 12.1066 146.08 77.6816 156.346C143.257 166.611 118.036 154.216 170.496 136.115C185.84 130.821 194.884 128.078 200 126.846V160Z" fill="#4E43E5"/>
<path d="M174.352 73V72.5H200V100.73L199.352 101.831V92.2754C198.655 91.8702 197.632 91.5865 196.148 91.5508C194.504 91.5112 192.327 91.7765 189.472 92.4854C180.616 94.6837 175.616 97.6484 172.769 99.9766C171.345 101.141 170.451 102.153 169.876 102.847C169.599 103.18 169.363 103.482 169.195 103.664C169.114 103.752 169.005 103.863 168.877 103.935C168.818 103.968 168.73 104.004 168.622 104.016C168.571 104.049 168.507 104.092 168.43 104.142C168.205 104.287 167.872 104.5 167.442 104.775C166.583 105.326 165.334 106.121 163.774 107.103C160.655 109.065 156.292 111.771 151.319 114.742C141.38 120.681 128.981 127.694 119.2 131.958C114.352 134.071 111.497 135.891 109.69 137.484C107.896 139.067 107.118 140.445 106.443 141.732C105.763 143.031 105.159 144.309 103.712 145.523C102.275 146.729 100.042 147.848 96.1396 148.98C88.3497 151.242 80.5292 152.371 74.6611 152.936C71.7259 153.218 69.2755 153.359 67.5586 153.43C66.7003 153.465 66.025 153.482 65.5635 153.491C65.3327 153.496 65.1552 153.498 65.0352 153.499C64.9752 153.5 64.9293 153.5 64.8984 153.5H64.7852L64.7207 153.482L25.8691 142.982L25.835 142.974L25.8027 142.96L0.154297 131.96L0 131.894V117.044C0.0964673 117.022 0.206148 117.009 0.316406 117.001L0.851562 116.964V117.382C2.11428 117.687 5.08036 118.161 9.11523 118.631C13.5743 119.15 19.2918 119.661 25.3438 119.939C31.3968 120.217 37.7766 120.262 43.5635 119.85C49.3608 119.436 54.5201 118.566 58.1572 117.039C74.6809 110.102 79.1318 110.548 110.09 91.5732C125.655 82.0333 141.716 77.2674 153.88 74.8848C159.963 73.6932 165.075 73.097 168.669 72.7988C170.466 72.6497 171.884 72.5745 172.854 72.5371C173.338 72.5184 173.711 72.5096 173.964 72.5049C174.09 72.5025 174.186 72.5016 174.251 72.501C174.283 72.5007 174.308 72.5001 174.325 72.5H174.351C174.351 72.5009 174.352 72.5211 174.352 73Z" fill="#13133E"/>
<rect x="12" y="59" width="43" height="28" rx="4" fill="#2C89F3"/>
<path d="M12 32C12 26.4772 16.4772 22 22 22H51C53.2091 22 55 23.7909 55 26V46C55 48.2091 53.2091 50 51 50H22C16.4772 50 12 45.5228 12 40V32Z" fill="#2C89F3"/>
<rect x="69" y="22" width="43" height="28" rx="4" fill="#2C89F3"/>
<path d="M223.182 148V54.9091H258.818C265.545 54.9091 271.136 55.9697 275.591 58.0909C280.076 60.1818 283.424 63.0455 285.636 66.6818C287.879 70.3182 289 74.4394 289 79.0455C289 82.8333 288.273 86.0758 286.818 88.7727C285.364 91.4394 283.409 93.6061 280.955 95.2727C278.5 96.9394 275.758 98.1364 272.727 98.8636V99.7727C276.03 99.9545 279.197 100.97 282.227 102.818C285.288 104.636 287.788 107.212 289.727 110.545C291.667 113.879 292.636 117.909 292.636 122.636C292.636 127.455 291.47 131.788 289.136 135.636C286.803 139.455 283.288 142.47 278.591 144.682C273.894 146.894 267.985 148 260.864 148H223.182ZM240.045 133.909H258.182C264.303 133.909 268.712 132.742 271.409 130.409C274.136 128.045 275.5 125.015 275.5 121.318C275.5 118.561 274.818 116.076 273.455 113.864C272.091 111.621 270.152 109.864 267.636 108.591C265.121 107.288 262.121 106.636 258.636 106.636H240.045V133.909ZM240.045 94.5H256.727C259.636 94.5 262.258 93.9697 264.591 92.9091C266.924 91.8182 268.758 90.2879 270.091 88.3182C271.455 86.3182 272.136 83.9545 272.136 81.2273C272.136 77.6212 270.864 74.6515 268.318 72.3182C265.803 69.9848 262.061 68.8182 257.091 68.8182H240.045V94.5ZM326.67 149.409C322.246 149.409 318.261 148.621 314.716 147.045C311.201 145.439 308.413 143.076 306.352 139.955C304.322 136.833 303.307 132.985 303.307 128.409C303.307 124.47 304.034 121.212 305.489 118.636C306.943 116.061 308.928 114 311.443 112.455C313.958 110.909 316.792 109.742 319.943 108.955C323.125 108.136 326.413 107.545 329.807 107.182C333.898 106.758 337.216 106.379 339.761 106.045C342.307 105.682 344.155 105.136 345.307 104.409C346.489 103.652 347.08 102.485 347.08 100.909V100.636C347.08 97.2121 346.064 94.5606 344.034 92.6818C342.004 90.803 339.08 89.8636 335.261 89.8636C331.231 89.8636 328.034 90.7424 325.67 92.5C323.337 94.2576 321.761 96.3333 320.943 98.7273L305.58 96.5455C306.792 92.303 308.792 88.7576 311.58 85.9091C314.367 83.0303 317.777 80.8788 321.807 79.4545C325.837 78 330.292 77.2727 335.17 77.2727C338.534 77.2727 341.883 77.6667 345.216 78.4545C348.549 79.2424 351.595 80.5455 354.352 82.3636C357.11 84.1515 359.322 86.5909 360.989 89.6818C362.686 92.7727 363.534 96.6364 363.534 101.273V148H347.716V138.409H347.17C346.17 140.348 344.761 142.167 342.943 143.864C341.155 145.53 338.898 146.879 336.17 147.909C333.473 148.909 330.307 149.409 326.67 149.409ZM330.943 137.318C334.246 137.318 337.11 136.667 339.534 135.364C341.958 134.03 343.822 132.273 345.125 130.091C346.458 127.909 347.125 125.53 347.125 122.955V114.727C346.61 115.152 345.731 115.545 344.489 115.909C343.277 116.273 341.913 116.591 340.398 116.864C338.883 117.136 337.383 117.379 335.898 117.591C334.413 117.803 333.125 117.985 332.034 118.136C329.58 118.47 327.383 119.015 325.443 119.773C323.504 120.53 321.973 121.591 320.852 122.955C319.731 124.288 319.17 126.015 319.17 128.136C319.17 131.167 320.277 133.455 322.489 135C324.701 136.545 327.519 137.318 330.943 137.318ZM380.08 148V78.1818H396.034V89.8182H396.761C398.034 85.7879 400.216 82.6818 403.307 80.5C406.428 78.2879 409.989 77.1818 413.989 77.1818C414.898 77.1818 415.913 77.2273 417.034 77.3182C418.186 77.3788 419.14 77.4848 419.898 77.6364V92.7727C419.201 92.5303 418.095 92.3182 416.58 92.1364C415.095 91.9242 413.655 91.8182 412.261 91.8182C409.261 91.8182 406.564 92.4697 404.17 93.7727C401.807 95.0455 399.943 96.8182 398.58 99.0909C397.216 101.364 396.534 103.985 396.534 106.955V148H380.08ZM458.864 149.364C451.864 149.364 445.818 147.909 440.727 145C435.667 142.061 431.773 137.909 429.045 132.545C426.318 127.152 424.955 120.803 424.955 113.5C424.955 106.318 426.318 100.015 429.045 94.5909C431.803 89.1364 435.652 84.8939 440.591 81.8636C445.53 78.803 451.333 77.2727 458 77.2727C462.303 77.2727 466.364 77.9697 470.182 79.3636C474.03 80.7273 477.424 82.8485 480.364 85.7273C483.333 88.6061 485.667 92.2727 487.364 96.7273C489.061 101.152 489.909 106.424 489.909 112.545V117.591H432.682V106.5H474.136C474.106 103.348 473.424 100.545 472.091 98.0909C470.758 95.6061 468.894 93.6515 466.5 92.2273C464.136 90.803 461.379 90.0909 458.227 90.0909C454.864 90.0909 451.909 90.9091 449.364 92.5455C446.818 94.1515 444.833 96.2727 443.409 98.9091C442.015 101.515 441.303 104.379 441.273 107.5V117.182C441.273 121.242 442.015 124.727 443.5 127.636C444.985 130.515 447.061 132.727 449.727 134.273C452.394 135.788 455.515 136.545 459.091 136.545C461.485 136.545 463.652 136.212 465.591 135.545C467.53 134.848 469.212 133.833 470.636 132.5C472.061 131.167 473.136 129.515 473.864 127.545L489.227 129.273C488.258 133.333 486.409 136.879 483.682 139.909C480.985 142.909 477.53 145.242 473.318 146.909C469.106 148.545 464.288 149.364 458.864 149.364ZM534.739 149.364C527.739 149.364 521.693 147.909 516.602 145C511.542 142.061 507.648 137.909 504.92 132.545C502.193 127.152 500.83 120.803 500.83 113.5C500.83 106.318 502.193 100.015 504.92 94.5909C507.678 89.1364 511.527 84.8939 516.466 81.8636C521.405 78.803 527.208 77.2727 533.875 77.2727C538.178 77.2727 542.239 77.9697 546.057 79.3636C549.905 80.7273 553.299 82.8485 556.239 85.7273C559.208 88.6061 561.542 92.2727 563.239 96.7273C564.936 101.152 565.784 106.424 565.784 112.545V117.591H508.557V106.5H550.011C549.981 103.348 549.299 100.545 547.966 98.0909C546.633 95.6061 544.769 93.6515 542.375 92.2273C540.011 90.803 537.254 90.0909 534.102 90.0909C530.739 90.0909 527.784 90.9091 525.239 92.5455C522.693 94.1515 520.708 96.2727 519.284 98.9091C517.89 101.515 517.178 104.379 517.148 107.5V117.182C517.148 121.242 517.89 124.727 519.375 127.636C520.86 130.515 522.936 132.727 525.602 134.273C528.269 135.788 531.39 136.545 534.966 136.545C537.36 136.545 539.527 136.212 541.466 135.545C543.405 134.848 545.087 133.833 546.511 132.5C547.936 131.167 549.011 129.515 549.739 127.545L565.102 129.273C564.133 133.333 562.284 136.879 559.557 139.909C556.86 142.909 553.405 145.242 549.193 146.909C544.981 148.545 540.163 149.364 534.739 149.364ZM626.295 174.182V137H625.614C624.765 138.697 623.538 140.5 621.932 142.409C620.326 144.288 618.205 145.894 615.568 147.227C612.932 148.561 609.614 149.227 605.614 149.227C600.129 149.227 595.22 147.818 590.886 145C586.553 142.182 583.129 138.091 580.614 132.727C578.098 127.364 576.841 120.848 576.841 113.182C576.841 105.424 578.114 98.8788 580.659 93.5455C583.235 88.1818 586.705 84.1364 591.068 81.4091C595.432 78.6515 600.295 77.2727 605.659 77.2727C609.75 77.2727 613.114 77.9697 615.75 79.3636C618.386 80.7273 620.477 82.3788 622.023 84.3182C623.568 86.2273 624.765 88.0303 625.614 89.7273H626.614V78.1818H642.795V174.182H626.295ZM610.205 135.727C613.689 135.727 616.659 134.788 619.114 132.909C621.568 131 623.432 128.348 624.705 124.955C625.977 121.561 626.614 117.606 626.614 113.091C626.614 108.576 625.977 104.652 624.705 101.318C623.462 97.9848 621.614 95.3939 619.159 93.5455C616.735 91.697 613.75 90.7727 610.205 90.7727C606.538 90.7727 603.477 91.7273 601.023 93.6364C598.568 95.5455 596.72 98.1818 595.477 101.545C594.235 104.909 593.614 108.758 593.614 113.091C593.614 117.455 594.235 121.348 595.477 124.773C596.75 128.167 598.614 130.848 601.068 132.818C603.553 134.758 606.598 135.727 610.205 135.727Z" fill="#101C7B"/>
</svg>
